<svg width="100" height="26" viewBox="0 0 100 26" fill="none" xmlns="http://www.w3.org/2000/svg">
<g clip-path="url(#clip0_1_104)">
<mask id="mask0_1_104" style="mask-type:luminance" maskUnits="userSpaceOnUse" x="0" y="0" width="100" height="26">
<path d="M100 0H0V25.4032H100V0Z" fill="white"/>
</mask>
<g mask="url(#mask0_1_104)">
<path d="M100 0H0V25.4032H100V0Z" fill="url(#paint0_linear_1_104)"/>
<path d="M21.2367 4.52782C21.2367 4.62378 21.2161 4.69919 21.175 4.75403C21.1476 4.79515 21.079 4.81572 20.9694 4.81572C20.8323 4.81572 20.6952 4.81572 20.5581 4.81572C20.421 4.80201 20.2839 4.79515 20.1468 4.79515C19.996 4.79515 19.8246 4.83628 19.6327 4.91854C19.4407 5.0008 19.3448 5.1379 19.3448 5.32983V18.306C19.3448 18.498 19.4407 18.6351 19.6327 18.7173C19.8246 18.7996 19.996 18.8407 20.1468 18.8407C20.2976 18.8407 20.4415 18.8339 20.5786 18.8202C20.7294 18.8064 20.8734 18.7996 21.0105 18.7996C21.1339 18.7996 21.1956 18.8681 21.1956 19.0052C21.1956 19.0464 21.1956 19.0875 21.1956 19.1286C21.1956 19.156 21.1956 19.1903 21.1956 19.2314C21.1956 19.3274 21.1476 19.3754 21.0516 19.3754C20.5718 19.3754 20.0851 19.3617 19.5915 19.3343C19.1117 19.3069 18.625 19.2931 18.1315 19.2931C17.8573 19.2931 17.5762 19.3 17.2883 19.3137C17.0141 19.3274 16.7399 19.3411 16.4657 19.3548C16.2875 19.3685 16.1093 19.3823 15.9311 19.396C15.7665 19.4097 15.5952 19.4165 15.4169 19.4165C15.3347 19.4165 15.2936 19.348 15.2936 19.2109C15.2936 19.156 15.3004 19.0806 15.3141 18.9847C15.3278 18.875 15.369 18.8202 15.4375 18.8202C15.5883 18.8202 15.746 18.827 15.9105 18.8407C16.075 18.8407 16.2327 18.8407 16.3835 18.8407C16.5343 18.8407 16.7125 18.7996 16.9182 18.7173C17.1238 18.6351 17.2266 18.498 17.2266 18.306V11.7871H8.93912V18.306C8.93912 18.498 9.03509 18.6351 9.22703 18.7173C9.41896 18.7996 9.59033 18.8407 9.74114 18.8407C9.89195 18.8407 10.0359 18.8339 10.173 18.8202C10.3238 18.8064 10.4746 18.7996 10.6254 18.7996C10.7214 18.7996 10.7762 18.8339 10.7899 18.9024C10.8036 18.9161 10.8105 18.9573 10.8105 19.0258C10.8105 19.0806 10.8105 19.1218 10.8105 19.1492C10.8105 19.1903 10.7968 19.252 10.7694 19.3343C10.7145 19.3617 10.6734 19.3754 10.646 19.3754C10.1661 19.3754 9.6863 19.3617 9.20646 19.3343C8.74033 19.3069 8.26735 19.2931 7.78751 19.2931C7.49961 19.2931 7.2117 19.3 6.9238 19.3137C6.64961 19.3274 6.37541 19.3411 6.10122 19.3548C5.92299 19.3685 5.75162 19.3823 5.58711 19.396C5.42259 19.4097 5.25122 19.4165 5.07299 19.4165C4.97703 19.4165 4.94275 19.3823 4.97017 19.3137C4.94275 19.2314 4.92904 19.1835 4.92904 19.1698C4.92904 19.1149 4.9359 19.0464 4.94961 18.9641C4.96332 18.8681 5.0113 18.8202 5.09356 18.8202C5.24436 18.8202 5.39517 18.827 5.54598 18.8407C5.71049 18.8407 5.86816 18.8407 6.01896 18.8407C6.18348 18.8407 6.3617 18.7996 6.55364 18.7173C6.75928 18.6351 6.86211 18.498 6.86211 18.306C6.86211 17.127 6.86211 15.948 6.86211 14.7689C6.87582 13.5899 6.88267 12.4177 6.88267 11.2524C6.88267 10.279 6.87582 9.29878 6.86211 8.31169C6.86211 7.32459 6.86211 6.34435 6.86211 5.37096C6.86211 5.17903 6.75928 5.04193 6.55364 4.95967C6.3617 4.87741 6.18348 4.83628 6.01896 4.83628C5.86816 4.83628 5.71049 4.84314 5.54598 4.85685C5.39517 4.85685 5.24436 4.85685 5.09356 4.85685C4.99759 4.85685 4.94275 4.80201 4.92904 4.69233C4.91533 4.58265 4.90848 4.5004 4.90848 4.44556C4.90848 4.32217 4.96332 4.26048 5.07299 4.26048C5.25122 4.26048 5.42259 4.26733 5.58711 4.28104C5.75162 4.29475 5.92299 4.30846 6.10122 4.32217C6.37541 4.33588 6.64961 4.34959 6.9238 4.3633C7.2117 4.37701 7.49961 4.38386 7.78751 4.38386C8.26735 4.38386 8.74719 4.37015 9.22703 4.34274C9.72057 4.31532 10.2073 4.30161 10.6871 4.30161C10.7831 4.30161 10.8311 4.34274 10.8311 4.42499C10.8311 4.50725 10.8311 4.58265 10.8311 4.6512C10.8311 4.80201 10.7625 4.87741 10.6254 4.87741C10.4746 4.87741 10.3238 4.87056 10.173 4.85685C10.0359 4.84314 9.89195 4.83628 9.74114 4.83628C9.59033 4.83628 9.41896 4.87741 9.22703 4.95967C9.03509 5.04193 8.93912 5.17903 8.93912 5.37096V11.1085H17.2266V5.53548C17.2266 5.26128 17.1512 5.0762 17.0004 4.98024C16.8496 4.88427 16.644 4.83628 16.3835 4.83628C16.2327 4.83628 16.075 4.84314 15.9105 4.85685C15.746 4.85685 15.5883 4.85685 15.4375 4.85685C15.3553 4.85685 15.3073 4.81572 15.2936 4.73346C15.2936 4.63749 15.2936 4.56209 15.2936 4.50725C15.2936 4.34274 15.3484 4.26048 15.4581 4.26048C15.7871 4.26048 16.123 4.27419 16.4657 4.30161C16.8222 4.32903 17.1718 4.34274 17.5145 4.34274H18.1315C18.625 4.34274 19.1117 4.32903 19.5915 4.30161C20.0851 4.27419 20.5718 4.26048 21.0516 4.26048C21.1202 4.26048 21.1682 4.2879 21.1956 4.34274C21.223 4.39757 21.2367 4.45927 21.2367 4.52782ZM30.0365 12.1367C30.0228 11.5746 29.9748 11.0399 29.8926 10.5327C29.8103 10.0117 29.6115 9.58669 29.2962 9.25766C28.9809 8.91491 28.4668 8.74354 27.7539 8.74354C27.1095 8.74354 26.5817 8.92177 26.1704 9.27822C25.7728 9.62096 25.4644 10.0597 25.245 10.5943C25.0257 11.1153 24.8611 11.65 24.7515 12.1984C25.0942 12.2121 25.4301 12.2258 25.7591 12.2395C26.0882 12.2395 26.4172 12.2395 26.7462 12.2395C27.2946 12.2395 27.843 12.2327 28.3914 12.2189C28.9398 12.1915 29.4882 12.1641 30.0365 12.1367ZM32.4015 16.846C32.4015 16.9145 32.3877 16.9556 32.3603 16.9693C32.3192 17.1064 32.2164 17.271 32.0519 17.4629C31.9011 17.6548 31.7297 17.8399 31.5378 18.0181C31.3458 18.1827 31.1882 18.306 31.0648 18.3883C30.6123 18.7036 30.0982 18.9573 29.5224 19.1492C28.9603 19.3411 28.3982 19.4371 27.8361 19.4371C27.37 19.4371 26.849 19.3617 26.2732 19.2109C25.7111 19.0601 25.2313 18.8544 24.8337 18.5939C24.066 18.0867 23.5039 17.4218 23.1474 16.5992C22.791 15.7766 22.6128 14.9198 22.6128 14.0286C22.6128 13.0141 22.8115 12.075 23.2091 11.2113C23.6067 10.3476 24.2442 9.64838 25.1216 9.1137C25.5192 8.88064 25.9648 8.6887 26.4583 8.5379C26.9519 8.37338 27.4248 8.29112 27.8773 8.29112C28.6861 8.29112 29.399 8.45564 30.016 8.78467C30.6329 9.1137 31.1127 9.57983 31.4555 10.1831C31.8119 10.7726 31.9902 11.4786 31.9902 12.3012C31.9902 12.5343 31.9353 12.6851 31.8257 12.7536C31.7297 12.8222 31.5789 12.8564 31.3732 12.8564C31.099 12.8564 30.8248 12.8496 30.5507 12.8359C30.2765 12.8222 30.0023 12.8085 29.7281 12.7948C29.3442 12.7673 28.9603 12.7536 28.5765 12.7536C28.2063 12.7536 27.8293 12.7536 27.4454 12.7536C26.9793 12.7536 26.5132 12.7536 26.047 12.7536C25.5809 12.7536 25.1148 12.7673 24.6486 12.7948C24.6349 13.0141 24.6212 13.2266 24.6075 13.4323C24.5938 13.6379 24.5869 13.8504 24.5869 14.0698C24.5869 14.577 24.6486 15.1048 24.772 15.6532C24.8954 16.1879 25.0942 16.6883 25.3684 17.1544C25.6426 17.6069 25.9922 17.977 26.4172 18.2649C26.8422 18.5391 27.3563 18.6762 27.9595 18.6762C28.5765 18.6762 29.166 18.5802 29.7281 18.3883C30.2902 18.1964 30.8043 17.8879 31.2704 17.4629C31.3938 17.3395 31.5035 17.2093 31.5994 17.0722C31.7091 16.9214 31.8257 16.7911 31.949 16.6814C32.0176 16.6129 32.093 16.5786 32.1752 16.5786C32.2438 16.5786 32.2986 16.606 32.3398 16.6609C32.3809 16.7157 32.4015 16.7774 32.4015 16.846ZM40.2966 16.9488C40.2418 16.3319 40.2075 15.7149 40.1938 15.098C40.1938 14.4673 40.1869 13.8367 40.1732 13.206H39.8853C39.4603 13.206 38.9873 13.2746 38.4664 13.4117C37.9591 13.5351 37.4724 13.727 37.0063 13.9875C36.5402 14.248 36.1563 14.577 35.8547 14.9746C35.5668 15.3585 35.4228 15.804 35.4228 16.3113C35.4228 16.9693 35.6079 17.4698 35.9781 17.8125C36.3482 18.1415 36.8486 18.306 37.4793 18.306C37.7809 18.306 38.1099 18.2375 38.4664 18.1004C38.8228 17.9496 39.1656 17.7714 39.4946 17.5657C39.8236 17.3601 40.091 17.1544 40.2966 16.9488ZM43.8956 18.2649C43.8956 18.3198 43.8887 18.3609 43.875 18.3883C43.7379 18.6899 43.5048 18.923 43.1758 19.0875C42.8605 19.2383 42.5452 19.3137 42.2299 19.3137C41.654 19.3137 41.2359 19.1492 40.9754 18.8202C40.7286 18.4774 40.5298 18.0593 40.379 17.5657C39.8579 18.0456 39.2821 18.45 38.6515 18.779C38.0208 19.0943 37.3422 19.252 36.6156 19.252C36.1083 19.252 35.6285 19.156 35.1761 18.9641C34.7373 18.7585 34.3809 18.4637 34.1067 18.0798C33.8325 17.696 33.6954 17.2298 33.6954 16.6814C33.6954 16.1056 33.8394 15.6121 34.1273 15.2008C34.4289 14.7758 34.8059 14.4194 35.2583 14.1314C35.7244 13.8298 36.218 13.5899 36.739 13.4117C37.2736 13.2198 37.774 13.0758 38.2402 12.9798C38.5555 12.9113 38.8777 12.8496 39.2067 12.7948C39.5357 12.7399 39.8579 12.6851 40.1732 12.6302C40.1732 12.2464 40.1527 11.8008 40.1115 11.2935C40.0841 10.7863 39.9813 10.3681 39.8031 10.0391C39.6248 9.72378 39.3849 9.44274 39.0833 9.19596C38.7817 8.94919 38.4458 8.8258 38.0756 8.8258C37.445 8.8258 36.9515 8.99032 36.595 9.31935C36.2386 9.64838 35.9849 10.1145 35.8341 10.7177C35.8204 10.7863 35.8067 10.8617 35.793 10.9439C35.793 11.0125 35.7861 11.081 35.7724 11.1496C35.7587 11.2318 35.7039 11.3073 35.6079 11.3758C35.5257 11.4306 35.4365 11.4581 35.3406 11.4581C35.0801 11.4581 34.8402 11.3964 34.6208 11.273C34.4152 11.1496 34.3123 10.9439 34.3123 10.656C34.3123 10.4915 34.3398 10.3476 34.3946 10.2242C34.5728 9.79919 34.8607 9.44959 35.2583 9.1754C35.6559 8.88749 36.0946 8.66814 36.5744 8.51733C37.068 8.36653 37.5273 8.29112 37.9523 8.29112C38.6926 8.29112 39.3644 8.42822 39.9676 8.70241C40.571 8.97661 41.0508 9.38104 41.4073 9.91572C41.7774 10.4367 41.9625 11.0948 41.9625 11.8899C41.9625 12.781 41.9557 13.679 41.9419 14.5839C41.9419 15.4887 41.9694 16.3935 42.0242 17.2984C42.0379 17.6 42.0996 17.8673 42.2093 18.1004C42.319 18.3198 42.5452 18.4294 42.8879 18.4294C43.0661 18.4294 43.2512 18.3883 43.4431 18.306C43.6488 18.2101 43.779 18.1621 43.8339 18.1621C43.875 18.1621 43.8956 18.1964 43.8956 18.2649ZM50.5161 19.0875C50.5161 19.156 50.4956 19.2246 50.4544 19.2931C50.427 19.348 50.3722 19.3754 50.2899 19.3754C49.8649 19.3754 49.4331 19.3685 48.9944 19.3548C48.5556 19.3274 48.1169 19.3137 47.6782 19.3137H46.9585C46.6706 19.3137 46.3827 19.3274 46.0948 19.3548C45.8069 19.3685 45.519 19.3754 45.2311 19.3754C45.1762 19.3754 45.1351 19.3548 45.1077 19.3137C45.094 19.2589 45.0871 19.2109 45.0871 19.1698C45.0871 19.1286 45.0871 19.0875 45.0871 19.0464C45.0871 19.0052 45.094 18.9641 45.1077 18.923C45.1351 18.8681 45.2105 18.8407 45.3339 18.8407C45.471 18.827 45.6081 18.827 45.7452 18.8407C45.896 18.8407 45.9919 18.8407 46.0331 18.8407C46.225 18.8407 46.3964 18.7996 46.5472 18.7173C46.698 18.6214 46.7734 18.4637 46.7734 18.2444C46.7734 17.1887 46.7803 16.1399 46.794 15.098C46.8077 14.0423 46.8145 12.9935 46.8145 11.9516C46.8145 10.8823 46.8077 9.8129 46.794 8.74354C46.794 7.66048 46.794 6.58427 46.794 5.51491C46.794 5.41895 46.7871 5.31612 46.7734 5.20644C46.7597 5.08306 46.7186 4.98709 46.65 4.91854C46.5952 4.84999 46.5403 4.81572 46.4855 4.81572C46.4306 4.80201 46.3621 4.79515 46.2798 4.79515C46.0331 4.79515 45.7863 4.83628 45.5395 4.91854C45.3065 5.0008 45.0734 5.04193 44.8403 5.04193C44.6895 5.04193 44.6141 4.95282 44.6141 4.77459C44.6141 4.66491 44.6964 4.58951 44.8609 4.54838C45.0391 4.50725 45.1762 4.47983 45.2722 4.46612C45.752 4.35644 46.273 4.23306 46.8351 4.09596C47.3972 3.95886 47.9044 3.8012 48.3569 3.62298C48.3843 3.62298 48.4117 3.61612 48.4391 3.60241C48.4665 3.5887 48.4871 3.58185 48.5008 3.58185C48.5831 3.58185 48.6311 3.60927 48.6448 3.66411C48.6722 3.71894 48.6859 3.78064 48.6859 3.84919C48.6859 4.23306 48.679 4.61693 48.6653 5.0008C48.6653 5.37096 48.6653 5.74798 48.6653 6.13185V11.8899C48.6653 12.9456 48.6722 14.0081 48.6859 15.0774C48.6996 16.1331 48.7065 17.1887 48.7065 18.2444C48.7065 18.4637 48.7956 18.6214 48.9738 18.7173C49.1657 18.7996 49.3508 18.8407 49.529 18.8407C49.6798 18.8407 49.8238 18.8339 49.9609 18.8202C50.098 18.8064 50.2351 18.7996 50.3722 18.7996C50.4407 18.7996 50.4819 18.8407 50.4956 18.923C50.5093 18.9915 50.5161 19.0464 50.5161 19.0875Z" fill="#F5F5F5"/>
<path d="M60.3605 4.56897C60.3605 4.66494 60.3468 4.74034 60.3193 4.79518C60.3056 4.85002 60.2439 4.87744 60.1343 4.87744C59.9286 4.87744 59.723 4.87744 59.5173 4.87744C59.3254 4.86373 59.1266 4.85687 58.921 4.85687C58.729 4.85687 58.5302 4.91171 58.3246 5.02139C58.1327 5.11736 58.023 5.28187 57.9956 5.51494C57.9818 5.61091 57.975 5.71373 57.975 5.82341C57.9887 5.91937 57.9956 6.0222 57.9956 6.13187C57.9956 7.95526 57.9887 9.77865 57.975 11.602C57.975 13.4254 57.975 15.2557 57.975 17.0928C57.975 18.1484 57.8242 19.1012 57.5226 19.9512C57.2347 20.8149 56.748 21.4936 56.0625 21.9871C55.377 22.4944 54.4448 22.748 53.2657 22.748C53.0189 22.748 52.7173 22.7411 52.3609 22.7274C52.0044 22.7137 51.6548 22.6657 51.3121 22.5835C50.9693 22.5012 50.6814 22.3573 50.4484 22.1516C50.2153 21.9597 50.0988 21.6855 50.0988 21.3291C50.0988 20.9863 50.229 20.7121 50.4895 20.5065C50.75 20.3145 51.031 20.2186 51.3327 20.2186C51.4423 20.2186 51.5863 20.246 51.7645 20.3008C51.9564 20.3557 52.1278 20.4311 52.2786 20.527C52.4294 20.623 52.5048 20.7395 52.5048 20.8766C52.45 20.9452 52.3952 21.0206 52.3403 21.1028C52.2855 21.1851 52.2581 21.2811 52.2581 21.3907C52.2581 21.6786 52.3746 21.8774 52.6077 21.9871C52.8407 22.0968 53.0738 22.1516 53.3069 22.1516C53.6359 22.1516 53.9649 22.0831 54.2939 21.946C54.623 21.8226 54.9109 21.6375 55.1577 21.3907C55.4181 21.1577 55.5827 20.8698 55.6512 20.527C55.7198 20.102 55.7609 19.677 55.7746 19.252C55.7883 18.827 55.7952 18.402 55.7952 17.977V5.51494C55.7952 5.29558 55.706 5.13792 55.5278 5.04195C55.3496 4.94599 55.1439 4.89115 54.9109 4.87744C54.6778 4.85002 54.4859 4.83631 54.3351 4.83631C54.198 4.83631 54.0609 4.84316 53.9238 4.85687C53.8004 4.87058 53.677 4.87744 53.5536 4.87744C53.3617 4.87744 53.2657 4.78147 53.2657 4.58953C53.2657 4.38389 53.3548 4.28107 53.5331 4.28107C53.6702 4.28107 53.8073 4.28792 53.9443 4.30163C54.0952 4.31534 54.2391 4.3222 54.3762 4.3222C55.1577 4.36333 55.946 4.38389 56.7411 4.38389C57.3032 4.38389 57.8722 4.37018 58.448 4.34276C59.0238 4.30163 59.5927 4.28107 60.1548 4.28107C60.2645 4.28107 60.3262 4.31534 60.3399 4.38389C60.3536 4.43873 60.3605 4.50042 60.3605 4.56897ZM70.2117 13.9258C70.2117 13.3363 70.1637 12.7468 70.0677 12.1573C69.9855 11.5541 69.821 10.9988 69.5742 10.4916C69.3411 9.98429 68.9984 9.57986 68.546 9.27824C68.0935 8.96292 67.504 8.80526 66.7774 8.80526C66.0919 8.80526 65.5298 8.96978 65.0911 9.29881C64.6661 9.62784 64.3302 10.0528 64.0835 10.5738C63.8504 11.0948 63.6859 11.6569 63.5899 12.2601C63.5077 12.8633 63.4665 13.4323 63.4665 13.967C63.4665 14.5565 63.5077 15.146 63.5899 15.7355C63.6859 16.325 63.8573 16.8597 64.104 17.3395C64.3508 17.8057 64.7004 18.1827 65.1528 18.4706C65.6189 18.7585 66.2153 18.9024 66.9419 18.9024C67.6548 18.9024 68.2238 18.7516 68.6488 18.45C69.0875 18.1484 69.4165 17.7508 69.6359 17.2573C69.8689 16.7637 70.0198 16.2291 70.0883 15.6532C70.1706 15.0637 70.2117 14.4879 70.2117 13.9258ZM72.3298 13.9875C72.3298 15.0157 72.0831 15.9411 71.5895 16.7637C71.1097 17.5863 70.4516 18.2375 69.6153 18.7174C68.7927 19.1972 67.8673 19.4371 66.8391 19.4371C65.8383 19.4371 64.9335 19.1972 64.1246 18.7174C63.3157 18.2238 62.6714 17.5726 62.1915 16.7637C61.7117 15.9411 61.4718 15.0295 61.4718 14.0286C61.4718 13.0004 61.7048 12.0545 62.171 11.1907C62.6371 10.3133 63.2746 9.60728 64.0835 9.0726C64.906 8.53792 65.852 8.27058 66.9214 8.27058C68.073 8.27058 69.0532 8.51736 69.8621 9.01091C70.671 9.49074 71.281 10.1625 71.6923 11.0262C72.1173 11.8762 72.3298 12.8633 72.3298 13.9875ZM85.9871 18.7996C85.9871 18.9641 85.8637 19.0875 85.6169 19.1698C85.3839 19.252 85.1234 19.3069 84.8355 19.3343C84.5476 19.3617 84.3419 19.3754 84.2185 19.3754C83.7524 19.3754 83.3823 19.1903 83.1081 18.8202C82.8339 18.45 82.6282 18.0661 82.4911 17.6686C82.025 18.2581 81.4423 18.6968 80.7431 18.9847C80.0439 19.2726 79.3173 19.4166 78.5633 19.4166C77.3294 19.4166 76.4726 19.1012 75.9927 18.4706C75.5266 17.8262 75.2935 16.9214 75.2935 15.7561C75.2935 14.7278 75.2935 13.6996 75.2935 12.6714C75.3072 11.6295 75.321 10.5944 75.3347 9.56615C75.3347 9.15486 75.1359 8.94921 74.7383 8.94921C74.6286 8.94921 74.5189 8.95607 74.4093 8.96978C74.2996 8.98349 74.1899 8.99034 74.0802 8.99034C74.0391 8.99034 74.0048 8.96978 73.9774 8.92865C73.9637 8.87381 73.9568 8.83268 73.9568 8.80526C73.9568 8.65445 74.0254 8.5722 74.1625 8.55849C74.6423 8.50365 75.1222 8.46937 75.602 8.45566C76.0956 8.42824 76.5822 8.38712 77.0621 8.33228C77.1718 8.44195 77.2266 8.57905 77.2266 8.74357C77.2266 9.08631 77.2197 9.43591 77.206 9.79236C77.1923 10.1488 77.1855 10.5053 77.1855 10.8617C77.1718 11.698 77.1581 12.5411 77.1443 13.3911C77.1443 14.2274 77.1443 15.0706 77.1443 15.9206C77.1443 16.1811 77.1512 16.4621 77.1649 16.7637C77.1786 17.0516 77.2335 17.319 77.3294 17.5657C77.4802 17.9496 77.7613 18.2238 78.1726 18.3883C78.5976 18.5391 79.002 18.6145 79.3859 18.6145C79.8109 18.6145 80.2359 18.5391 80.6609 18.3883C81.0996 18.2238 81.4697 17.9907 81.7714 17.6891C82.0867 17.3738 82.2649 16.9831 82.306 16.517C82.3335 16.2839 82.3472 16.0508 82.3472 15.8178C82.3609 15.571 82.3677 15.3311 82.3677 15.098L82.3472 9.50445C82.3472 9.32623 82.2855 9.19599 82.1621 9.11373C82.0524 9.03147 81.9222 8.99034 81.7714 8.99034C81.6343 8.99034 81.4972 8.9972 81.3601 9.01091C81.2367 9.02462 81.1064 9.03147 80.9693 9.03147C80.846 9.03147 80.7843 8.96292 80.7843 8.82583C80.7843 8.68873 80.846 8.61333 80.9693 8.59962C81.1339 8.5722 81.3052 8.55849 81.4835 8.55849C81.6617 8.54478 81.8399 8.53107 82.0181 8.51736L83.4371 8.37341C83.5331 8.3597 83.629 8.34599 83.725 8.33228C83.8347 8.31857 83.9375 8.31171 84.0335 8.31171C84.102 8.31171 84.15 8.35284 84.1774 8.4351C84.2048 8.50365 84.2185 8.55849 84.2185 8.59962C84.1774 11.5746 84.1568 14.5428 84.1568 17.5041C84.1568 17.8468 84.2323 18.1278 84.3831 18.3472C84.5476 18.5666 84.8149 18.6762 85.1851 18.6762C85.2948 18.6762 85.3907 18.6625 85.473 18.6351C85.5689 18.6077 85.6649 18.594 85.7609 18.594C85.9117 18.594 85.9871 18.6625 85.9871 18.7996ZM95.1371 10.2036C95.1371 10.3407 95.0822 10.471 94.9726 10.5944C94.8766 10.7041 94.7532 10.7589 94.6024 10.7589C94.3968 10.7589 94.246 10.6903 94.15 10.5532C94.0677 10.4161 93.9923 10.2585 93.9238 10.0803C93.8689 9.90204 93.7798 9.74437 93.6564 9.60728C93.5331 9.47018 93.3274 9.40163 93.0395 9.40163C92.9847 9.40163 92.9298 9.40163 92.875 9.40163C92.8339 9.40163 92.7859 9.40849 92.731 9.4222C92.498 9.46333 92.2443 9.60728 91.9701 9.85405C91.696 10.1008 91.4286 10.3956 91.1681 10.7383C90.9214 11.0674 90.7157 11.3964 90.5512 11.7254C90.3867 12.0545 90.2976 12.3286 90.2839 12.548C90.2702 12.7674 90.2633 12.9867 90.2633 13.2061C90.2633 13.4117 90.2633 13.6174 90.2633 13.823C90.2633 14.5633 90.2633 15.3036 90.2633 16.044C90.277 16.7843 90.2839 17.5178 90.2839 18.2444C90.2839 18.45 90.3661 18.6008 90.5306 18.6968C90.7089 18.7791 90.8871 18.8202 91.0653 18.8202C91.2024 18.8202 91.3395 18.8133 91.4766 18.7996C91.6137 18.7859 91.7508 18.779 91.8879 18.779C91.9564 18.779 92.0044 18.8133 92.0318 18.8819C92.0593 18.9367 92.073 18.9916 92.073 19.0464C92.073 19.2657 91.9633 19.3754 91.7439 19.3754C91.3326 19.3754 90.9214 19.3686 90.5101 19.3549C90.0988 19.3274 89.6875 19.3137 89.2762 19.3137C88.8512 19.3137 88.4193 19.3274 87.9806 19.3549C87.5556 19.3823 87.1238 19.396 86.6851 19.396C86.6302 19.396 86.5891 19.3549 86.5617 19.2726C86.548 19.1903 86.5411 19.1218 86.5411 19.067C86.5411 18.9299 86.596 18.8545 86.7056 18.8407C86.8564 18.8133 87.0141 18.8065 87.1786 18.8202C87.3431 18.8339 87.4939 18.8407 87.631 18.8407C87.8367 18.8407 88.0012 18.7996 88.1246 18.7174C88.2617 18.6214 88.3371 18.4637 88.3508 18.2444C88.3782 17.8057 88.3919 17.3601 88.3919 16.9077C88.4056 16.4553 88.4125 16.0028 88.4125 15.5504V13.5557C88.3988 12.9661 88.3919 12.3835 88.3919 11.8077C88.4056 11.2182 88.3851 10.6355 88.3302 10.0597C88.3165 9.7855 88.2411 9.59357 88.104 9.48389C87.9669 9.3605 87.7613 9.29881 87.4871 9.29881C87.3774 9.29881 87.2609 9.31252 87.1375 9.33994C87.0278 9.35365 86.9113 9.3605 86.7879 9.3605C86.6782 9.3605 86.6234 9.27824 86.6234 9.11373C86.6234 9.01776 86.6714 8.94921 86.7673 8.90808C86.9044 8.86695 87.0484 8.83954 87.1992 8.82583C87.35 8.79841 87.4939 8.77784 87.631 8.76413C88.0012 8.69558 88.3714 8.62704 88.7415 8.55849C89.1117 8.48994 89.4818 8.40768 89.852 8.31171C89.9754 8.35284 90.0645 8.42824 90.1193 8.53792C90.1468 8.59276 90.1673 8.74357 90.181 8.99034C90.1948 9.23712 90.2016 9.52502 90.2016 9.85405C90.2016 10.1694 90.2016 10.471 90.2016 10.7589C90.2016 11.0331 90.2016 11.225 90.2016 11.3347C90.5032 10.8549 90.846 10.375 91.2298 9.89518C91.6137 9.41534 92.0524 9.01776 92.546 8.70244C93.0395 8.38712 93.5947 8.22945 94.2117 8.22945C94.5407 8.22945 94.7532 8.33228 94.8492 8.53792C94.9452 8.74357 95.0068 8.98349 95.0343 9.25768C95.0617 9.40849 95.0822 9.56615 95.096 9.73066C95.1234 9.89518 95.1371 10.0528 95.1371 10.2036Z" fill="white"/>
</g>
</g>
<defs>
<linearGradient id="paint0_linear_1_104" x1="50" y1="0" x2="50" y2="25.4032" gradientUnits="userSpaceOnUse">
<stop offset="0.03125" stop-color="#1B5C2D"/>
<stop offset="0.46875" stop-color="#109C37"/>
<stop offset="0.953125" stop-color="#23B64C"/>
</linearGradient>
<clipPath id="clip0_1_104">
<rect width="100" height="25.4032" fill="white"/>
</clipPath>
</defs>
</svg>
